<svg width="143" height="96" viewBox="0 0 143 96" fill="none" xmlns="http://www.w3.org/2000/svg">
<path d="M1.5 43.5L48.5 2L72 22.5L95.5 2L141.5 43.5V72L118.698 93.3152L118.5 93.5L95.5 74.5L72 93.5L48.5 74.5L25.5 93.5L1.5 72V43.5Z" fill="#39332F"/>
<path d="M1.5 43.5L48.5 2L72 22.5L95.5 2L141.5 43.5M1.5 43.5L25.5 64M1.5 43.5V72L25.5 93.5M141.5 43.5L118.5 64M141.5 43.5V72L118.698 93.3152M118.5 64L95.5 44.5M118.5 64L118.698 93.3152M95.5 44.5L72 64M95.5 44.5V74.5M72 64L48.5 44.5M72 64V93.5M48.5 44.5L25.5 64M48.5 44.5V74.5M25.5 64V93.5M25.5 93.5L48.5 74.5M48.5 74.5L72 93.5M72 93.5L95.5 74.5M95.5 74.5L118.5 93.5L118.698 93.3152" stroke="#39332F" stroke-width="2"/>
<path d="M2 72V44L25 66.5L49.5 47.5L71.5 66L95 47.5L118 66L141.5 45.5V72L118 94L95 75L72.5 94L49.5 75L25.5 94L2 72Z" fill="#C69E61"/>
<path d="M25.5 94L2 72V44L25 66.5M25.5 94L49.5 75M25.5 94L25 66.5M49.5 75L72.5 94M49.5 75V47.5M72.5 94L95 75M72.5 94L71.5 66M95 75L118 94M95 75V47.5M118 94L141.5 72V45.5L118 66M118 94V66M118 66L95 47.5M95 47.5L71.5 66M71.5 66L49.5 47.5M49.5 47.5L25 66.5" stroke="#39332F" stroke-width="2"/>
</svg>
