<svg width="143" height="96" viewBox="0 0 143 96" fill="none" xmlns="http://www.w3.org/2000/svg">
<g clip-path="url(#clip0_4_2)">
<path d="M1.5 43.5L48.5 2L72 22.5L95.5 2L141.5 43.5V72L118.698 93.3152L118.5 93.5L95.5 74.5L72 93.5L48.5 74.5L25.5 93.5L1.5 72V43.5Z" fill="black"/>
<path d="M95.5 74.5L118.5 93.5L118.698 93.3152M1.5 43.5L48.5 2L72 22.5L95.5 2L141.5 43.5H1.5ZM1.5 43.5L25.5 64L1.5 43.5ZM1.5 43.5V72L25.5 93.5L1.5 43.5ZM141.5 43.5L118.5 64L141.5 43.5ZM141.5 43.5V72L118.698 93.3152L141.5 43.5ZM118.5 64L95.5 44.5L118.5 64ZM118.5 64L118.698 93.3152L118.5 64ZM95.5 44.5L72 64L95.5 44.5ZM95.5 44.5V74.5V44.5ZM72 64L48.5 44.5L72 64ZM72 64V93.5V64ZM48.5 44.5L25.5 64L48.5 44.5ZM48.5 44.5V74.5V44.5ZM25.5 64V93.5V64ZM25.5 93.5L48.5 74.5L25.5 93.5ZM48.5 74.5L72 93.5L48.5 74.5ZM72 93.5L95.5 74.5L72 93.5Z" stroke="black" stroke-width="2"/>
<path d="M2 72V44L25 66.5L49.5 47.5L71.5 66L95 47.5L118 66L141.5 45.5V72L118 94L95 75L72.5 94L49.5 75L25.5 94L2 72Z" fill="white"/>
<path d="M49.5 47.5L25 66.5M25.5 94L2 72V44L25 66.5L25.5 94ZM25.5 94L49.5 75L25.5 94ZM25.5 94L25 66.5L25.5 94ZM49.5 75L72.5 94L49.5 75ZM49.5 75V47.5V75ZM72.5 94L95 75L72.5 94ZM72.5 94L71.5 66L72.5 94ZM95 75L118 94L95 75ZM95 75V47.5V75ZM118 94L141.5 72V45.5L118 66V94ZM118 94V66V94ZM118 66L95 47.5L118 66ZM95 47.5L71.5 66L95 47.5ZM71.5 66L49.5 47.5L71.5 66Z" stroke="black" stroke-width="2"/>
</g>
<defs>
<clipPath id="clip0_4_2">
<rect width="143" height="96" fill="white"/>
</clipPath>
</defs>
</svg>
