<svg width="1650" height="600" viewBox="0 0 1650 600" fill="none" xmlns="http://www.w3.org/2000/svg">
<path d="M17.3076 271.875L559.615 12.5L830.769 140.625L1101.92 12.5L1632.69 271.875V450L1369.59 583.22L1367.31 584.375L1101.92 465.625L830.769 584.375L559.615 465.625L294.231 584.375L17.3076 450V271.875Z" fill="black"/>
<path d="M1101.92 465.625L1367.31 584.375L1369.59 583.22M17.3076 271.875L559.615 12.5L830.769 140.625L1101.92 12.5L1632.69 271.875H17.3076ZM17.3076 271.875L294.231 400L17.3076 271.875ZM17.3076 271.875V450L294.231 584.375L17.3076 271.875ZM1632.69 271.875L1367.31 400L1632.69 271.875ZM1632.69 271.875V450L1369.59 583.22L1632.69 271.875ZM1367.31 400L1101.92 278.125L1367.31 400ZM1367.31 400L1369.59 583.22L1367.31 400ZM1101.92 278.125L830.769 400L1101.92 278.125ZM1101.92 278.125V465.625V278.125ZM830.769 400L559.615 278.125L830.769 400ZM830.769 400V584.375V400ZM559.615 278.125L294.231 400L559.615 278.125ZM559.615 278.125V465.625V278.125ZM294.231 400V584.375V400ZM294.231 584.375L559.615 465.625L294.231 584.375ZM559.615 465.625L830.769 584.375L559.615 465.625ZM830.769 584.375L1101.92 465.625L830.769 584.375Z" stroke="black" stroke-width="2"/>
<path d="M20 450V275L285.385 415.625L568.077 296.875L821.923 412.5L1093.08 296.875L1358.46 412.5L1629.62 284.375V450L1358.46 587.5L1093.08 468.75L833.461 587.5L568.077 468.75L291.154 587.5L20 450Z" fill="#F3F4F6"/>
<path d="M568.077 296.875L285.385 415.625M291.154 587.5L20 450V275L285.385 415.625L291.154 587.5ZM291.154 587.5L568.077 468.75L291.154 587.5ZM291.154 587.5L285.385 415.625L291.154 587.5ZM568.077 468.75L833.461 587.5L568.077 468.75ZM568.077 468.75V296.875V468.75ZM833.461 587.5L1093.08 468.75L833.461 587.5ZM833.461 587.5L821.923 412.5L833.461 587.5ZM1093.08 468.75L1358.46 587.5L1093.08 468.75ZM1093.08 468.75V296.875V468.75ZM1358.46 587.5L1629.62 450V284.375L1358.46 412.5V587.5ZM1358.46 587.5V412.5V587.5ZM1358.46 412.5L1093.08 296.875L1358.46 412.5ZM1093.08 296.875L821.923 412.5L1093.08 296.875ZM821.923 412.5L568.077 296.875L821.923 412.5Z" stroke="black" stroke-width="2"/>
</svg>
